# xmcd CD database file
#
# Track frame offsets:
#	150
#	74169
#	113011
#	122655
#	165520
#	217343
#
# Disc length: 3636 seconds
#
# Revision: 0
# Processed by: cddbd v1.5.1PL0 Copyright (c) Steve Scherf et al.
# Submitted via: CDex 1.51
#
DISCID=5a0e3206
DTITLE=Alex Skolnick Trio - Live in Montreal [CD2]
DYEAR=2003
DGENRE=Jazz
TTITLE0=Still Loving You (Scorpions)
TTITLE1=Dream On (Aerosmith)
TTITLE2=Band Introduction
TTITLE3=Scorch (Skolnick)
TTITLE4=Both Feet In (Zebroski)
TTITLE5=War Pigs (Black Sabbath)
EXTD=YEAR: 2003
EXTT0=
EXTT1=
EXTT2=
EXTT3=
EXTT4=
EXTT5=
PLAYORDER=
